<svg id="图层_1" data-name="图层 1" xmlns="http://www.w3.org/2000/svg" viewBox="0 0 1500 250"><title>featuredImage</title><rect width="1500" height="250" style="fill:none"/><path d="M539.307,375c-3.2638.2826-6.6688.5651-9.9326.989a119.4332,119.4332,0,0,0-40.0136,11.7837A126.47,126.47,0,0,0,454.6033,412.88a2.09,2.09,0,0,1-1.9922.7063,106.7322,106.7322,0,0,0-115.35,67.8338,100.16,100.16,0,0,0-6.5277,30.2221,7.1587,7.1587,0,0,1-.2827,1.8367V524.401c.2827,2.84.7065,5.5385.9891,8.3784A99.5759,99.5759,0,0,0,341.3729,565.7a105.513,105.513,0,0,0,53.4927,50.78,100.6958,100.6958,0,0,0,34.6161,8.3786,5.307,5.307,0,0,1,1.2152.1413h121.171c2.5856-.24,5.1146-.4946,7.7285-.8477a117.8941,117.8941,0,0,0,39.7168-11.7837,124.844,124.844,0,0,0,51.5146-46.6825,115.6752,115.6752,0,0,0,16.7289-43.7013c.7065-4.804,1.13-9.7773,1.71-14.6095a7.16,7.16,0,0,1,.2828-1.8367V494.32c-.2827-3.25-.7065-6.3864-.7065-9.3535a117.9069,117.9069,0,0,0-11.7837-39.7309,126.4838,126.4838,0,0,0-46.9651-51.5,116.4931,116.4931,0,0,0-43.4045-16.6016c-5.1146-.8477-10.0739-1.2716-15.1887-1.8369a9.5387,9.5387,0,0,1-1.9781-.2824Z" transform="translate(250 -375)" style="fill:#da1f26"/><path d="M544.5207,398.9205c30.0384.0707,55.5273,11.6707,76.2263,34.687a101.3182,101.3182,0,0,1-54.92,165.2819,103.1,103.1,0,0,1-36.17,1.4129,90.4994,90.4994,0,0,1-42.43-16.3048,73.4588,73.4588,0,0,1-9.4948-8.096c-17.3223-17.0256-34.475-34.1924-51.7972-51.218a10.9278,10.9278,0,0,1-2.5432-13.1965,11.614,11.614,0,0,1,12.1933-6.6688,12.109,12.109,0,0,1,7.3754,4.1256c15.6127,15.74,31.0841,31.211,46.6824,46.965a74.3614,74.3614,0,0,0,43.7013,21.7022c27.5235,3.6877,50.9353-4.818,69.515-25.4039A77.8167,77.8167,0,0,0,621.5948,512.49a74.3817,74.3817,0,0,0-15.4713-60.3031,78.2094,78.2094,0,0,0-104.1313-17.8733,2.14,2.14,0,0,1-1.851.1414,127.715,127.715,0,0,0-19.8654-12.0662,1.7472,1.7472,0,0,1-.2826-.4239A103.4751,103.4751,0,0,1,535.04,399.26q4.7245-.3574,9.4664-.3391Z" transform="translate(250 -375)" style="fill:#fff"/><path d="M437.069,436.5463c20.5578-.3391,39.4344,7.4178,56.2622,23.03,12.0661,11.3316,23.1291,23.1152,34.7575,34.8989a10.6492,10.6492,0,0,1,2.416,11.7694c-1.5542,4.3942-5.1148,6.5276-9.65,7.2341a10.2012,10.2012,0,0,1-8.93-3.25c-11.0772-11.0771-22.14-21.999-33.0621-33.2033a57.3972,57.3972,0,0,0-32.0729-16.757,59.3653,59.3653,0,0,0-23.412,116.3529,87.8871,87.8871,0,0,0,21.1513,1.4129,5.5023,5.5023,0,0,1,4.5213,1.8368c6.8243,6.6831,14.0585,13.3519,21.1513,20.0067.4238.4239.989.8478,1.4128,1.2716-.8477,0-1.4128.1414-1.9779.1414H437.14A82.4153,82.4153,0,0,1,356.7028,536.75c-9.2262-41.5678,14.61-83.7148,55.4709-96.0495A89.4416,89.4416,0,0,1,437.069,436.5463Z" transform="translate(250 -375)" style="fill:#fff"/></svg>