<?xml version="1.0" encoding="utf-8"?>
<!-- Generator: Adobe Illustrator 23.0.1, SVG Export Plug-In . SVG Version: 6.00 Build 0)  -->
<svg version="1.1" id="图层_1" xmlns="http://www.w3.org/2000/svg" xmlns:xlink="http://www.w3.org/1999/xlink" x="0px" y="0px"
	 viewBox="0 0 1500 1000" style="enable-background:new 0 0 1500 1000;" xml:space="preserve">
<style type="text/css">
	.st0{fill:none;}
	.st1{fill:#DA1F26;}
	.st2{fill:#FFFFFF;}
</style>
<title>Adobe-CreativeCloud</title>
<rect class="st0" width="1500" height="1000"/>
<path class="st1" d="M781.4,400c-2.6,0.2-5.3,0.5-7.9,0.8c-11.1,1.2-22,4.4-32,9.4c-10.3,5.1-19.7,11.9-27.8,20.1
	c-0.4,0.5-1,0.7-1.6,0.6c-39.7-5.8-78.1,16.7-92.3,54.3c-3,7.7-4.7,15.9-5.2,24.2c0,0.5-0.1,1-0.2,1.5v8.7c0.2,2.3,0.6,4.4,0.8,6.7
	c1.1,9.2,3.8,18.1,7.9,26.3c8.9,18.2,24.1,32.7,42.8,40.6c8.8,3.9,18.1,6.1,27.7,6.7c0.3,0,0.7,0,1,0.1h96.9
	c2.1-0.2,4.1-0.4,6.2-0.7c11.1-1.2,21.8-4.4,31.8-9.4c17-8.3,31.3-21.2,41.2-37.3c6.8-10.6,11.4-22.5,13.4-35
	c0.6-3.8,0.9-7.8,1.4-11.7c0-0.5,0.1-1,0.2-1.5v-9c-0.2-2.6-0.6-5.1-0.6-7.5c-1.2-11.1-4.4-21.8-9.4-31.8
	c-8.4-17-21.4-31.3-37.6-41.2c-10.6-6.7-22.4-11.2-34.7-13.3c-4.1-0.7-8.1-1-12.2-1.5c-0.5,0-1.1-0.1-1.6-0.2L781.4,400z"/>
<path class="st2" d="M785.6,419.1c24,0.1,44.4,9.3,61,27.7c15.2,17.6,22.1,40.8,19.1,63.8c-4.6,33.8-29.7,61.1-63,68.4
	c-9.5,2.1-19.3,2.5-28.9,1.1c-12.2-1.4-23.9-5.9-33.9-13c-2.7-1.9-5.3-4.1-7.6-6.5c-13.9-13.6-27.6-27.4-41.4-41
	c-3-2.6-3.9-7-2-10.6c1.7-3.7,5.7-5.9,9.8-5.3c2.3,0.4,4.4,1.5,5.9,3.3c12.5,12.6,24.9,25,37.3,37.6c9.4,9.6,21.7,15.7,35,17.4
	c22,3,40.7-3.9,55.6-20.3c7.9-8.9,13.1-20,15-31.8c3.1-17.1-1.4-34.7-12.4-48.2c-19.9-25.6-56-31.8-83.3-14.3
	c-0.5,0.3-1,0.3-1.5,0.1c-5-3.7-10.3-6.9-15.9-9.7c-0.1-0.1-0.2-0.2-0.2-0.3c12.6-10.2,27.9-16.6,44-18.2
	C780.6,419.2,783.1,419.1,785.6,419.1L785.6,419.1z"/>
<path class="st2" d="M699.7,449.2c16.4-0.3,31.5,5.9,45,18.4c9.7,9.1,18.5,18.5,27.8,27.9c2.5,2.4,3.3,6.2,1.9,9.4
	c-1.2,3.5-4.1,5.2-7.7,5.8c-2.7,0.4-5.3-0.6-7.1-2.6c-8.9-8.9-17.7-17.6-26.4-26.6c-6.9-7.1-15.9-11.8-25.7-13.4
	c-25.8-4.5-50.4,12.9-54.9,38.7c-4.3,24.8,11.6,48.7,36.1,54.4c5.6,1.1,11.3,1.4,16.9,1.1c1.4-0.1,2.7,0.4,3.6,1.5
	c5.5,5.3,11.2,10.7,16.9,16c0.3,0.3,0.8,0.7,1.1,1c-0.7,0-1.1,0.1-1.6,0.1h-26c-30.9,0-57.6-21.5-64.3-51.6
	c-7.4-33.3,11.7-67,44.4-76.8C686.2,450.5,692.9,449.4,699.7,449.2z"/>
</svg>
