<svg id="图层_1" data-name="图层 1" xmlns="http://www.w3.org/2000/svg" viewBox="0 0 800.0018 800"><title>gmail</title><circle cx="400.0009" cy="400" r="400" style="fill:none"/><path d="M163.6,800.05H836.3a63.6324,63.6324,0,0,0,63.6-63.6V263.65a63.6324,63.6324,0,0,0-63.6-63.6H163.6a63.6324,63.6324,0,0,0-63.6,63.6v472.7A63.6538,63.6538,0,0,0,163.6,800.05Z" transform="translate(-99.9991 -100)" style="fill:#e0e0e0"/><path d="M536.4,800.05h300a63.6324,63.6324,0,0,0,63.6-63.6V263.65a63.6324,63.6324,0,0,0-63.6-63.6H163.6a63.6324,63.6324,0,0,0-63.6,63.6Z" transform="translate(-99.9991 -100)" style="fill:#d9d9d9"/><path d="M186.3,800.05h650.1a63.6324,63.6324,0,0,0,63.6-63.6V272.75Z" transform="translate(-99.9991 -100)" style="fill:#eee"/><path d="M531.7,800.05H836.3a63.6324,63.6324,0,0,0,63.6-63.6V272.75l-495,365.8Z" transform="translate(-99.9991 -100)" style="fill:#e0e0e0"/><path d="M836.4,236.45H163.6c-35.1,0-63.6-7.9-63.6,27.3v472.7a63.6324,63.6324,0,0,0,63.6,63.6h27.3V281.85H809.1v518.2h27.3a63.6324,63.6324,0,0,0,63.6-63.6V263.65C900,228.55,871.5,236.45,836.4,236.45Z" transform="translate(-99.9991 -100)" style="fill:#c03736"/><path d="M836.4,200.05H163.6a63.2919,63.2919,0,0,0-63.6,62.9v.7c0,21.9,27.6,41.1,27.6,41.1L500,568.35l372.4-263.6s27.6-19.1,27.6-41.1a63.3142,63.3142,0,0,0-62.9-63.7A1.9518,1.9518,0,0,1,836.4,200.05Z" transform="translate(-99.9991 -100)" style="fill:#f5f5f5"/><path d="M849.9,201.55,500,445.55l-349.9-244a63.2767,63.2767,0,0,0-50.1,62.1c0,21.9,27.6,41.1,27.6,41.1L500,568.35l372.4-263.6s27.6-19.1,27.6-41.1A63.0752,63.0752,0,0,0,849.9,201.55Z" transform="translate(-99.9991 -100)" style="fill:#db4e49"/></svg>