<svg id="图层_1" data-name="图层 1" xmlns="http://www.w3.org/2000/svg" viewBox="0 0 1000 1000"><title>favicon</title><circle cx="500" cy="500" r="500" style="fill:#0084ff"/><path d="M925,500c0,234.73547-190.2646,425-425,425S75,734.73543,75,500s190.26452-425,425-425,425,190.2646,425,425" style="fill:#fff"/><polygon points="252.513 252.513 464.645 535.355 747.487 747.487 535.355 464.645 252.513 252.513" style="fill:#a5a5a5"/><polygon points="150.025 500 500 549.996 849.975 500 500 450.004 150.025 500" style="fill:#a5a5a5"/><polygon points="252.513 747.487 535.355 535.355 747.487 252.513 464.666 464.623 252.513 747.487" style="fill:#a5a5a5"/><polygon points="500 849.975 574.992 500 425.008 500 500 849.975" style="fill:blue"/><polygon points="425.008 500 574.992 500 500 150.025 425.008 500" style="fill:red"/><path d="M526.51651,473.48346a37.5,37.5,0,1,1-53.03306,0,37.4849,37.4849,0,0,1,53.03306,0" style="fill:#fff"/></svg>