<svg id="图层_1" data-name="图层 1" xmlns="http://www.w3.org/2000/svg" viewBox="0 0 1000 1000"><title>rss</title><rect width="1000" height="1000" style="fill:none"/><path d="M739.9666,900C739.9666,548.9,451.1,260,100,260V100c438.8333,0,800,361.1667,800,800ZM209.7,680.5c60.4667,0,109.7667,49.3,109.7667,109.8334,0,60.4333-49.5,109.6666-110.0334,109.6666C149,900,100,850.8666,100,790.3333A109.9024,109.9024,0,0,1,209.7,680.5ZM630.3,900H474.8c0-205.6334-169.1666-374.8333-374.8-374.8333v-155.5C390.9,369.6667,630.3,609.1333,630.3,900Z" style="fill:orange"/></svg>