<?xml version="1.0" standalone="no"?>
<!DOCTYPE svg PUBLIC "-//W3C//DTD SVG 20010904//EN"
 "http://www.w3.org/TR/2001/REC-SVG-20010904/DTD/svg10.dtd">
<svg version="1.0" xmlns="http://www.w3.org/2000/svg"
 width="700.000000pt" height="700.000000pt" viewBox="0 0 700.000000 700.000000"
 preserveAspectRatio="xMidYMid meet">
<metadata>
Created by potrace 1.14, written by Peter Selinger 2001-2017
</metadata>
<g transform="translate(0.000000,700.000000) scale(0.100000,-0.100000)"
fill="#000000" stroke="none">
<path d="M3170 6989 c-1037 -102 -1979 -659 -2562 -1514 -111 -163 -169 -265
-262 -457 -170 -350 -265 -667 -323 -1079 -25 -177 -25 -700 0 -879 80 -573
273 -1078 585 -1535 480 -703 1203 -1209 2031 -1420 281 -72 551 -105 861
-105 228 0 367 11 580 46 881 145 1679 631 2219 1351 343 457 564 973 656
1528 34 208 45 348 45 575 0 227 -11 367 -45 576 -119 718 -457 1375 -975
1894 -296 297 -583 501 -962 685 -342 165 -677 266 -1068 320 -137 20 -635 28
-780 14z m755 -548 c342 -52 626 -142 916 -289 864 -439 1454 -1258 1600
-2222 41 -273 36 -643 -12 -927 -209 -1242 -1186 -2220 -2431 -2432 -280 -48
-655 -53 -928 -12 -641 97 -1214 386 -1670 841 -1001 999 -1158 2569 -375
3745 495 743 1295 1223 2190 1314 151 16 560 6 710 -18z"/>
<path d="M3311 5083 c-101 -472 -185 -859 -186 -861 -2 -2 -302 220 -667 494
-364 273 -670 502 -678 508 -12 9 -13 8 -4 -4 6 -8 254 -340 552 -736 l540
-722 -66 -10 c-37 -5 -442 -63 -899 -128 -458 -65 -833 -121 -833 -124 0 -3
375 -59 833 -124 457 -65 862 -123 899 -128 l66 -10 -540 -722 c-298 -396
-546 -728 -552 -736 -9 -12 -8 -13 4 -4 8 6 313 235 677 508 365 273 664 496
666 496 2 0 86 -389 187 -865 102 -476 187 -865 190 -865 3 0 88 388 189 863
101 474 185 863 187 865 1 2 301 -220 666 -494 364 -273 670 -502 678 -508 12
-9 13 -8 4 4 -6 8 -254 339 -551 736 l-541 721 904 129 c497 71 904 131 904
134 0 3 -407 63 -904 134 l-904 129 541 721 c297 397 545 728 551 736 9 12 8
13 -4 4 -8 -6 -314 -235 -678 -508 -365 -274 -665 -496 -667 -494 -1 2 -85
389 -186 861 -101 471 -186 857 -189 857 -3 0 -88 -386 -189 -857z m268 -1339
c99 -29 181 -140 181 -244 0 -133 -127 -260 -260 -260 -133 0 -260 127 -260
260 0 101 82 215 176 244 64 19 99 19 163 0z"/>
</g>
</svg>
