<?xml version="1.0" standalone="no"?>
<!DOCTYPE svg PUBLIC "-//W3C//DTD SVG 20010904//EN"
 "http://www.w3.org/TR/2001/REC-SVG-20010904/DTD/svg10.dtd">
<svg version="1.0" xmlns="http://www.w3.org/2000/svg"
 width="700.000000pt" height="700.000000pt" viewBox="0 0 700.000000 700.000000"
 preserveAspectRatio="xMidYMid meet">
<metadata>
Created by potrace 1.14, written by Peter Selinger 2001-2017
</metadata>
<g transform="translate(0.000000,700.000000) scale(0.100000,-0.100000)"
fill="#000000" stroke="none">
<path d="M4389 5826 c-2 -2 -26 -7 -52 -10 -52 -7 -177 -50 -217 -74 -145 -89
-225 -164 -296 -278 -63 -102 -114 -259 -158 -489 -2 -11 -20 -94 -40 -185
-40 -189 -93 -442 -101 -489 -3 -17 -12 -63 -20 -101 -8 -38 -17 -82 -20 -97
-2 -16 -18 -91 -34 -168 -16 -77 -32 -156 -35 -175 -3 -19 -8 -46 -11 -60 -3
-14 -8 -39 -10 -55 -9 -53 -23 -92 -25 -70 -1 11 -3 27 -5 35 -4 16 -84 401
-91 435 -2 11 -7 34 -11 50 -3 17 -7 37 -8 45 -1 8 -23 116 -49 240 -26 124
-52 250 -58 280 -31 155 -159 336 -306 434 -252 167 -560 177 -811 27 -152
-91 -274 -238 -334 -401 -28 -79 -120 -478 -143 -625 -3 -16 -7 -37 -10 -45
-3 -8 -8 -26 -10 -40 -3 -14 -16 -83 -30 -155 -14 -71 -27 -141 -30 -155 -2
-14 -7 -36 -9 -50 -3 -14 -8 -38 -11 -55 -3 -16 -19 -99 -35 -184 -16 -85 -32
-168 -34 -185 -3 -17 -8 -38 -10 -46 -2 -8 -6 -31 -9 -50 -3 -19 -10 -60 -16
-90 -6 -30 -13 -68 -16 -85 -2 -16 -6 -41 -9 -55 -3 -14 -8 -41 -11 -60 -4
-19 -8 -42 -9 -50 -2 -8 -13 -64 -24 -125 -12 -60 -24 -125 -27 -144 -10 -63
-13 -70 -38 -114 -30 -50 -62 -80 -117 -108 -47 -25 -145 -36 -188 -21 -40 14
-40 5 2 -79 241 -478 874 -572 1236 -183 89 96 166 232 185 331 2 10 15 63 29
118 14 55 28 116 31 135 3 19 10 50 15 68 5 18 10 35 10 37 -1 3 2 24 6 46 7
40 16 45 22 11 1 -9 14 -71 28 -137 15 -66 30 -140 35 -165 11 -54 18 -86 25
-120 3 -14 7 -36 10 -50 2 -14 9 -43 14 -65 6 -22 24 -107 41 -190 26 -127 34
-164 45 -205 0 -3 7 -35 15 -72 7 -38 18 -68 22 -68 5 0 6 -4 3 -10 -9 -14 59
-143 111 -211 247 -321 710 -390 1037 -155 174 124 289 314 331 546 2 14 18
88 36 165 17 77 40 185 52 240 24 119 22 110 43 210 9 44 18 89 21 100 2 11
11 54 19 95 8 41 17 84 19 95 6 31 67 329 70 340 1 6 8 45 16 88 7 43 16 75
19 71 3 -3 6 -9 7 -12 0 -4 4 -26 8 -49 4 -24 7 -44 6 -45 -1 -2 3 -15 9 -29
5 -15 13 -46 16 -70 4 -24 8 -46 10 -49 2 -3 6 -25 10 -50 4 -25 8 -47 10 -51
2 -3 7 -19 9 -35 3 -16 8 -40 11 -54 3 -14 7 -37 10 -51 19 -106 101 -447 121
-503 90 -259 339 -468 600 -503 250 -35 483 43 656 218 71 72 103 118 150 211
37 74 36 79 -9 66 -88 -24 -215 19 -273 92 -41 52 -55 95 -90 280 -17 91 -38
197 -46 235 -9 39 -17 81 -19 95 -3 26 -59 312 -75 390 -5 25 -12 56 -14 70
-5 26 -23 119 -30 155 -4 21 -95 485 -102 520 -2 11 -6 29 -8 40 -12 57 -97
484 -101 505 -3 14 -12 59 -20 100 -8 41 -17 84 -19 95 -2 11 -18 92 -36 180
-17 88 -34 171 -36 185 -19 111 -40 168 -92 255 -44 72 -62 94 -127 158 -96
93 -232 168 -360 197 -49 12 -238 24 -246 16z"/>
</g>
</svg>
